<svg width="108" height="25" viewBox="0 0 108 25" fill="none" xmlns="http://www.w3.org/2000/svg">
<g clip-path="url(#clip0_609_878)">
<path d="M40.8793 9.53612C40.5809 8.63796 40.0983 7.81155 39.462 7.1095C38.8108 6.4007 38.0134 5.84077 37.1246 5.46815C36.0919 5.04575 34.983 4.8398 33.867 4.86311H28.4141V16.0436H30.8354V7.00007H33.867C34.5948 6.98806 35.3172 7.12725 35.9881 7.4088C36.5893 7.67002 37.1276 8.05626 37.5669 8.54166C38.0137 9.04629 38.3501 9.63816 38.5548 10.2796C38.7805 10.999 38.8895 11.7497 38.8776 12.5034C38.885 13.2494 38.7761 13.9921 38.5548 14.7048C38.353 15.3491 38.0237 15.9467 37.5862 16.462C37.1532 16.9636 36.6125 17.3617 36.0043 17.627C35.3245 17.918 34.5905 18.0618 33.8509 18.0486H28.4141V20.1888H33.867C34.9247 20.2021 35.9753 20.0154 36.9631 19.6385C37.8519 19.2937 38.6565 18.7638 39.3232 18.084C39.987 17.3914 40.4983 16.5681 40.8244 15.667C41.1917 14.6542 41.3722 13.5835 41.3571 12.5066C41.3648 11.4969 41.2033 10.4929 40.8793 9.53612V9.53612Z" fill="#06152B"/>
<path d="M54.1392 12.2749C53.8789 11.5928 53.4849 10.9691 52.9801 10.4405C52.458 9.90532 51.8362 9.47679 51.1496 9.17889C50.3955 8.85537 49.5814 8.69416 48.7605 8.70579C47.929 8.69306 47.1037 8.85081 46.3359 9.16923C45.636 9.46685 45.0051 9.90508 44.4827 10.4566C43.9688 11.0008 43.5653 11.639 43.2946 12.3361C43.0125 13.0537 42.869 13.8181 42.8717 14.5889C42.867 15.3599 43.0106 16.1246 43.2946 16.8417C43.5659 17.5308 43.9695 18.1605 44.4827 18.6955C45.008 19.2372 45.6386 19.6665 46.3359 19.9571C47.2282 20.3155 48.1897 20.4705 49.1499 20.4109C50.1101 20.3514 51.0448 20.0786 51.8857 19.6127C52.7328 19.1363 53.4099 18.4084 53.8228 17.5305L51.7888 16.9479C51.6715 17.2097 51.5111 17.4501 51.3142 17.6592C51.1111 17.8755 50.8772 18.0609 50.6201 18.2095C50.3524 18.3642 50.0645 18.4812 49.7646 18.5571C49.4573 18.6339 49.1418 18.6728 48.8251 18.673C47.9668 18.6781 47.1401 18.3504 46.5199 17.759C46.2048 17.4584 45.9477 17.1028 45.7612 16.7098C45.5605 16.2823 45.4391 15.8222 45.4028 15.3517H54.4749C54.4749 15.2519 54.5008 15.1264 54.5169 14.9751C54.5331 14.8238 54.5395 14.6533 54.5395 14.4891C54.5438 13.7328 54.4081 12.9822 54.1392 12.2749V12.2749ZM45.3383 13.691C45.3765 13.2353 45.4945 12.7898 45.687 12.3747C45.8619 11.9874 46.1121 11.6385 46.423 11.348C47.0539 10.7696 47.8807 10.45 48.7379 10.4534C49.1744 10.4505 49.6073 10.5313 50.0131 10.6915C50.8142 10.9941 51.4636 11.5987 51.8211 12.3747C52.0197 12.7882 52.1411 13.2342 52.1795 13.691H45.3383Z" fill="#06152B"/>
<path d="M61.2706 17.9839C61.0834 18.0547 60.8832 18.1191 60.6733 18.177C60.494 18.2303 60.3083 18.2595 60.1213 18.2639C59.9531 18.2735 59.7849 18.2465 59.6283 18.1848C59.4716 18.1231 59.3303 18.0282 59.2141 17.9067C58.9854 17.6322 58.87 17.2813 58.8912 16.9251V4.86279H56.5086V17.7876C56.4833 18.1361 56.5305 18.4861 56.6472 18.8156C56.7638 19.1451 56.9475 19.447 57.1866 19.7025C57.4445 19.9361 57.7469 20.1156 58.0758 20.2306C58.4046 20.3456 58.7532 20.3937 59.1011 20.3719C59.535 20.3675 59.9675 20.3212 60.3925 20.2335C60.8173 20.1566 61.2314 20.0291 61.6258 19.8538L61.2706 17.9839Z" fill="#06152B"/>
<path d="M73.5327 12.2749C73.2724 11.5927 72.8784 10.9691 72.3737 10.4404C71.8528 9.90532 71.2321 9.47676 70.5464 9.17886C69.791 8.85564 68.9759 8.69445 68.154 8.70576C67.3225 8.69331 66.4973 8.85104 65.7294 9.1692C65.03 9.46598 64.4001 9.90435 63.8795 10.4565C63.3637 11 62.9591 11.6384 62.6882 12.336C62.406 13.0537 62.2625 13.8181 62.2652 14.5889C62.2606 15.3599 62.4041 16.1246 62.6882 16.8417C62.9595 17.5315 63.3643 18.1614 63.8795 18.6955C64.403 19.2378 65.0326 19.6672 65.7294 19.9571C66.6218 20.3154 67.5832 20.4705 68.5434 20.4109C69.5036 20.3513 70.4383 20.0786 71.2792 19.6127C72.1253 19.1349 72.8021 18.4074 73.2163 17.5304L71.1791 16.9479C71.0618 17.2097 70.9014 17.4501 70.7045 17.6592C70.5014 17.8754 70.2675 18.0608 70.0104 18.2095C69.7427 18.3642 69.4548 18.4811 69.1549 18.5571C68.8476 18.6338 68.5321 18.6727 68.2154 18.6729C67.3571 18.6781 66.5305 18.3503 65.9102 17.7589C65.5952 17.4583 65.338 17.1027 65.1515 16.7098C64.9508 16.2823 64.8294 15.8222 64.7932 15.3516H73.8653C73.8653 15.2519 73.8943 15.1263 73.9072 14.9751C73.9201 14.8238 73.9298 14.6532 73.9298 14.4891C73.9351 13.733 73.8005 12.9824 73.5327 12.2749V12.2749ZM64.7318 13.691C64.7701 13.2353 64.8881 12.7898 65.0805 12.3747C65.2555 11.9874 65.5057 11.6385 65.8166 11.348C66.4475 10.7695 67.2743 10.45 68.1314 10.4533C68.5733 10.4491 69.0118 10.53 69.4228 10.6915C70.2221 10.9956 70.87 11.5999 71.2276 12.3747C71.4276 12.7876 71.5491 13.2339 71.5859 13.691H64.7318Z" fill="#06152B"/>
<path d="M84.5386 8.89846V11.0354C84.1037 10.3566 83.5239 9.78186 82.8404 9.35225C82.1214 8.91352 81.2909 8.69009 80.4481 8.70858C79.7106 8.69906 78.9807 8.85757 78.3141 9.17202C77.6826 9.47316 77.1191 9.89909 76.6578 10.424C76.1847 10.9694 75.8179 11.5981 75.5763 12.2777C75.3148 13.0089 75.1837 13.7801 75.1889 14.5563C75.1856 15.299 75.3134 16.0365 75.5666 16.7351C75.8081 17.4041 76.1666 18.0252 76.6255 18.5696C77.0776 19.0986 77.635 19.5282 78.2624 19.8311C78.9412 20.152 79.6859 20.3104 80.437 20.2936C81.1881 20.2769 81.9248 20.0854 82.5886 19.7346C83.2865 19.3665 83.8654 18.8085 84.2577 18.1254V19.8504C84.2712 20.3627 84.1709 20.8715 83.9639 21.3405C83.7822 21.7402 83.5117 22.0934 83.173 22.3736C82.8335 22.6524 82.4401 22.8584 82.0172 22.9787C81.5628 23.1091 81.092 23.1742 80.6192 23.1718C79.8615 23.1765 79.112 23.015 78.4238 22.6987C77.7522 22.3936 77.1731 21.9174 76.745 21.318L75.4052 22.5699C75.9507 23.3193 76.6665 23.9291 77.494 24.3497C78.4699 24.808 79.541 25.0286 80.6192 24.9933C81.4266 25 82.2302 24.8827 83.0018 24.6458C83.6985 24.4377 84.3485 24.0979 84.9164 23.6449C85.4548 23.2107 85.8875 22.6605 86.1819 22.0357C86.4961 21.3528 86.6517 20.608 86.6371 19.8569V8.89846H84.5386ZM84.2577 16.1268C84.1669 16.435 84.0203 16.7241 83.8251 16.9797C83.4014 17.5287 82.8306 17.9471 82.1786 18.1866C81.8458 18.309 81.4937 18.3711 81.139 18.37C80.6572 18.3753 80.1804 18.2718 79.7443 18.0675C79.3244 17.872 78.9463 17.5977 78.6305 17.2597C78.3071 16.9151 78.0529 16.512 77.8814 16.0721C77.6984 15.609 77.6063 15.1152 77.6102 14.6174C77.61 14.1323 77.6907 13.6505 77.8492 13.1917C78.0018 12.7441 78.2288 12.3253 78.5207 11.9527C78.8053 11.5885 79.1625 11.2871 79.5699 11.0676C80.0016 10.8455 80.4822 10.7349 80.9679 10.7458C81.3076 10.7476 81.6444 10.8097 81.9623 10.9292C82.2984 11.0534 82.6157 11.2234 82.905 11.4345C83.2015 11.6539 83.4666 11.9127 83.6927 12.2037C83.9262 12.4971 84.1164 12.8222 84.2577 13.1692V16.1268Z" fill="#06152B"/>
<path d="M98.834 17.379V13.3013C98.834 11.8166 98.4035 10.6806 97.5426 9.89313C96.6816 9.10571 95.4688 8.70986 93.9041 8.70557C92.2745 8.72377 90.6891 9.23562 89.3583 10.1731L90.0944 11.6825C90.6578 11.2924 91.2644 10.9684 91.9024 10.717C92.4722 10.5 93.0777 10.3908 93.6877 10.3952C94.582 10.3952 95.2697 10.6269 95.7443 11.0968C95.991 11.3557 96.1817 11.6625 96.3045 11.998C96.4272 12.3335 96.4794 12.6906 96.4578 13.0471V13.8259C96.0018 13.6584 95.5318 13.5314 95.0534 13.4462C94.5312 13.3533 94.0018 13.307 93.4714 13.3078C92.8167 13.3012 92.1644 13.3879 91.5343 13.5652C90.9905 13.7198 90.478 13.9682 90.0202 14.299C89.618 14.5975 89.2873 14.9811 89.0516 15.4222C88.8159 15.8672 88.696 16.3641 88.7029 16.8673C88.6995 17.3505 88.7996 17.8289 88.9967 18.2704C89.1853 18.6937 89.4576 19.0746 89.7974 19.3904C90.1481 19.7158 90.5594 19.9695 91.0081 20.1371C91.496 20.3205 92.0137 20.4121 92.5352 20.4074C93.3626 20.4124 94.1804 20.2309 94.9275 19.8764C95.6654 19.5279 96.3078 19.0067 96.8 18.3573L96.8646 19.0686C96.9123 19.4083 97.0765 19.7211 97.3295 19.9536C97.6304 20.1992 98.0133 20.3222 98.4014 20.298C98.5596 20.298 98.7242 20.298 98.8889 20.2755C99.0535 20.2529 99.2537 20.2336 99.4829 20.1918V18.161C99.0341 18.1417 98.834 17.881 98.834 17.379ZM96.4513 16.6452C96.4408 16.807 96.3945 16.9644 96.3158 17.1063C96.2371 17.2481 96.1279 17.3709 95.9961 17.4659C95.6825 17.8597 95.2673 18.1612 94.7951 18.338C94.2771 18.5515 93.722 18.6609 93.1615 18.6599C92.5697 18.6853 91.9911 18.4811 91.5472 18.0902C91.3462 17.9141 91.1861 17.6966 91.0779 17.4526C90.9698 17.2086 90.9162 16.9441 90.9209 16.6774C90.9134 16.3814 90.9844 16.0886 91.1267 15.8287C91.2689 15.5688 91.4775 15.3508 91.7313 15.1969C92.3557 14.8071 93.084 14.6152 93.8201 14.6466C94.7158 14.6521 95.6031 14.82 96.4384 15.1422L96.4513 16.6452Z" fill="#06152B"/>
<path d="M107.503 17.7232C107.284 17.8285 107.06 17.922 106.831 18.0032C106.527 18.1195 106.204 18.1785 105.879 18.177C105.578 18.1864 105.283 18.0908 105.046 17.9067C104.925 17.7955 104.83 17.6605 104.765 17.5104C104.7 17.3602 104.667 17.1981 104.668 17.0345V10.733H107.135V8.89857H104.668V4.86279H102.289V8.89857H100.794V10.733H102.289V17.7876C102.278 18.191 102.351 18.5922 102.505 18.9655C102.636 19.2718 102.84 19.5415 103.099 19.7508C103.359 19.9567 103.656 20.1107 103.974 20.2046C104.319 20.3065 104.677 20.3575 105.036 20.3558C105.618 20.3597 106.196 20.2684 106.747 20.0855C107.174 19.9478 107.592 19.7856 108 19.5995L107.503 17.7232Z" fill="#06152B"/>
<path d="M21.1182 12.072C21.1217 13.8714 20.7221 15.649 19.9485 17.2748C19.1749 18.9006 18.0469 20.3337 16.6467 21.4695L16.5983 21.5049C14.3647 23.1734 11.66 24.0969 8.86922 24.1439H0.384704C0.292906 24.1493 0.202654 24.1186 0.133265 24.0584C0.0638759 23.9983 0.0208638 23.9134 0.0134277 23.8221V7.40216C1.30483 6.08265 4.88524 2.53283 7.43899 0H9.0145C9.16624 0 9.31476 0 9.46649 0C10.2027 0.0259619 10.9351 0.116423 11.6554 0.270339L12.0784 0.370106L12.4948 0.48275C13.5627 0.802079 14.5808 1.26783 15.5199 1.86663L15.5619 1.89238C15.8396 2.05973 16.1075 2.23674 16.3723 2.42662C17.6836 3.35487 18.7692 4.56465 19.5491 5.96679C19.8046 6.43071 20.0206 6.91515 20.1948 7.41504C20.8083 8.89125 21.1222 10.4741 21.1182 12.072Z" fill="#339DFF"/>
<path d="M21.3016 12.0725C21.3036 13.8065 20.9257 15.5199 20.1943 17.0931C19.3948 18.7979 18.2116 20.2957 16.7365 21.4701L16.6881 21.5055C14.5051 23.2223 11.8042 24.1535 9.02362 24.1477H8.86865C11.6594 24.1007 14.3641 23.1772 16.5977 21.5087L16.6461 21.4733C18.6701 19.8231 20.108 17.5678 20.7475 15.0405C21.387 12.5132 21.1941 9.84784 20.1975 7.43815C20.0232 6.93826 19.8072 6.45382 19.5518 5.9899C18.7719 4.58776 17.6863 3.37798 16.3749 2.44973C16.1102 2.25985 15.8422 2.08284 15.5646 1.91549L15.5226 1.88974C14.5834 1.29094 13.5653 0.825189 12.4975 0.505859C13.5885 0.822827 14.6304 1.28852 15.5936 1.88974L15.6356 1.91549C17.7357 3.23846 19.3812 5.1684 20.3525 7.4478C20.9778 8.91001 21.3007 10.483 21.3016 12.0725Z" fill="#019EFD"/>
<path d="M7.44817 0V7.41825H0C1.29786 6.08264 4.88473 2.53283 7.44817 0Z" fill="#99D3FF"/>
</g>
<defs>
<clipPath id="clip0_609_878">
<rect width="108" height="25" fill="white"/>
</clipPath>
</defs>
</svg>
