<svg width="23" height="26" viewBox="0 0 23 26" fill="none" xmlns="http://www.w3.org/2000/svg">
<path d="M15.749 7.37341L5.98732 17.2992C5.66415 17.6559 5.49051 18.1232 5.50236 18.6043C5.51421 19.0855 5.71063 19.5437 6.05097 19.884C6.3913 20.2243 6.84948 20.4208 7.33064 20.4326C7.8118 20.4444 8.27909 20.2708 8.63576 19.9476L20.2725 8.14685C20.9188 7.43351 21.2661 6.49893 21.2424 5.53661C21.2187 4.57428 20.8259 3.65793 20.1452 2.97726C19.4645 2.29659 18.5482 1.90374 17.5859 1.88004C16.6235 1.85635 15.6889 2.20363 14.9756 2.84998L3.33889 14.6508C2.28527 15.7044 1.69336 17.1334 1.69336 18.6234C1.69336 20.1134 2.28527 21.5425 3.33889 22.5961C4.3925 23.6497 5.82151 24.2416 7.31154 24.2416C8.80158 24.2416 10.2306 23.6497 11.2842 22.5961L20.9053 12.9984" stroke="#416782" stroke-width="2" stroke-linecap="round" stroke-linejoin="round"/>
</svg>
