<svg width="120" height="120" viewBox="0 0 120 120" fill="none" xmlns="http://www.w3.org/2000/svg">
<path d="M17.7636 97.4525L42.9824 28.0307C43.1983 27.4366 43.5608 26.9068 44.0363 26.4904C44.5118 26.074 45.0848 25.7845 45.7022 25.6489C46.3195 25.5132 46.9611 25.5359 47.5674 25.7146C48.1736 25.8934 48.7249 26.2224 49.1699 26.6713L93.3261 70.8275C93.775 71.2726 94.1041 71.8238 94.2828 72.43C94.4616 73.0363 94.4842 73.6779 94.3485 74.2952C94.2129 74.9126 93.9235 75.4856 93.507 75.9611C93.0906 76.4366 92.5608 76.7992 91.9667 77.015L22.5449 102.234C21.877 102.489 21.1495 102.546 20.4502 102.396C19.7509 102.247 19.1097 101.899 18.6042 101.393C18.0986 100.888 17.7501 100.247 17.601 99.5472C17.4518 98.8479 17.5083 98.1204 17.7636 97.4525Z" stroke="#339DFF" stroke-width="4" stroke-linecap="round" stroke-linejoin="round"/>
<path d="M78.75 33.75C78.75 33.75 78.75 22.5 90 22.5C101.25 22.5 101.25 11.25 101.25 11.25" stroke="#339DFF" stroke-width="4" stroke-linecap="round" stroke-linejoin="round"/>
<path d="M47.9961 93.001L26.9961 72.001" stroke="#339DFF" stroke-width="4" stroke-linecap="round" stroke-linejoin="round"/>
<path d="M67.5 7.5V18.75" stroke="#339DFF" stroke-width="4" stroke-linecap="round" stroke-linejoin="round"/>
<path d="M101.25 52.5L108.75 60" stroke="#339DFF" stroke-width="4" stroke-linecap="round" stroke-linejoin="round"/>
<path d="M101.25 37.5L112.5 33.75" stroke="#339DFF" stroke-width="4" stroke-linecap="round" stroke-linejoin="round"/>
<path d="M35.998 47.2505L72.748 84.0005" stroke="#339DFF" stroke-width="4" stroke-linecap="round" stroke-linejoin="round"/>
</svg>
