<svg width="36" height="36" viewBox="0 0 36 36" fill="none" xmlns="http://www.w3.org/2000/svg">
<g clip-path="url(#clip0_6_98)">
<path d="M33.8484 17.1281L30.375 18.8578L25.875 10.2515L29.3906 8.49373C29.6519 8.36055 29.9552 8.33608 30.2345 8.42565C30.5137 8.51521 30.7462 8.71155 30.8813 8.97185L34.3406 15.5953C34.4108 15.7279 34.4537 15.8732 34.4669 16.0226C34.4801 16.172 34.4632 16.3225 34.4174 16.4654C34.3715 16.6082 34.2976 16.7404 34.1998 16.8542C34.1021 16.968 33.9827 17.0611 33.8484 17.1281V17.1281Z" stroke="#339DFF" stroke-width="2" stroke-linecap="round" stroke-linejoin="round"/>
<path d="M5.62476 18.7172L2.15132 16.9734C2.01758 16.9079 1.89839 16.8161 1.80082 16.7036C1.70326 16.591 1.62932 16.46 1.58341 16.3183C1.53749 16.1767 1.52053 16.0272 1.53354 15.8788C1.54655 15.7304 1.58926 15.5862 1.65914 15.4547L5.11851 8.83124C5.25384 8.57113 5.48537 8.37412 5.76379 8.28219C6.04222 8.19026 6.34553 8.21066 6.60914 8.33905L10.1248 10.0969L5.62476 18.7172Z" stroke="#339DFF" stroke-width="2" stroke-linecap="round" stroke-linejoin="round"/>
<path d="M30.375 18.8578L28.125 21.5015L22.95 26.6765C22.809 26.8084 22.6381 26.9042 22.4519 26.9556C22.2658 27.007 22.07 27.0126 21.8813 26.9718L13.725 24.9328C13.576 24.8913 13.4372 24.8194 13.3172 24.7218L5.625 18.7172" stroke="#339DFF" stroke-width="2" stroke-linecap="round" stroke-linejoin="round"/>
<path d="M28.1249 21.5016L21.9374 17.0016L20.1374 18.3516C19.3575 18.9336 18.4105 19.2481 17.4374 19.2481C16.4643 19.2481 15.5172 18.9336 14.7374 18.3516L13.978 17.775C13.8496 17.6774 13.7434 17.5536 13.6664 17.4119C13.5894 17.2701 13.5434 17.1136 13.5315 16.9528C13.5195 16.7919 13.5418 16.6303 13.597 16.4787C13.6522 16.3272 13.7389 16.189 13.8514 16.0735L19.3639 10.575C19.4675 10.472 19.5904 10.3904 19.7255 10.3349C19.8606 10.2794 20.0054 10.2511 20.1514 10.2516H25.8749" stroke="#339DFF" stroke-width="2" stroke-linecap="round" stroke-linejoin="round"/>
<path d="M10.209 10.0969L17.423 7.98756C17.6794 7.91405 17.9535 7.93399 18.1965 8.04381L23.0621 10.2516" stroke="#339DFF" stroke-width="2" stroke-linecap="round" stroke-linejoin="round"/>
<path d="M15.75 29.9391L11.5172 28.8703C11.3447 28.8313 11.185 28.7491 11.0531 28.6313L7.875 25.875" stroke="#339DFF" stroke-width="2" stroke-linecap="round" stroke-linejoin="round"/>
</g>
<defs>
<clipPath id="clip0_6_98">
<rect width="36" height="36" fill="white"/>
</clipPath>
</defs>
</svg>
