<svg width="60" height="60" viewBox="0 0 60 60" fill="none" xmlns="http://www.w3.org/2000/svg">
<circle cx="30" cy="30" r="30" fill="#FF9633"/>
<path d="M30 42C31.2426 42 32.25 40.9926 32.25 39.75C32.25 38.5074 31.2426 37.5 30 37.5C28.7574 37.5 27.75 38.5074 27.75 39.75C27.75 40.9926 28.7574 42 30 42Z" fill="white"/>
<path d="M30 33V31.5C31.0384 31.5 32.0534 31.1921 32.9167 30.6152C33.7801 30.0383 34.453 29.2184 34.8504 28.2591C35.2477 27.2998 35.3517 26.2442 35.1491 25.2258C34.9466 24.2074 34.4465 23.2719 33.7123 22.5377C32.9781 21.8035 32.0426 21.3035 31.0242 21.1009C30.0058 20.8983 28.9502 21.0023 27.9909 21.3996C27.0316 21.797 26.2117 22.4699 25.6348 23.3333C25.0579 24.1966 24.75 25.2117 24.75 26.25" stroke="white" stroke-width="3" stroke-linecap="round" stroke-linejoin="round"/>
</svg>
