<svg width="30" height="30" viewBox="0 0 30 30" fill="none" xmlns="http://www.w3.org/2000/svg">
<g id="Quotes">
<path id="Vector" d="M13.5938 8.4375V18.75C13.5938 20.2418 13.0011 21.6726 11.9462 22.7275C10.8913 23.7824 9.46059 24.375 7.96875 24.375C7.72011 24.375 7.48165 24.2762 7.30584 24.1004C7.13002 23.9246 7.03125 23.6861 7.03125 23.4375C7.03125 23.1889 7.13002 22.9504 7.30584 22.7746C7.48165 22.5988 7.72011 22.5 7.96875 22.5C8.96236 22.4969 9.91439 22.1008 10.617 21.3982C11.3196 20.6956 11.7157 19.7436 11.7188 18.75V17.8125H4.6875C4.19022 17.8125 3.71331 17.615 3.36167 17.2633C3.01004 16.9117 2.8125 16.4348 2.8125 15.9375V8.4375C2.8125 7.94022 3.01004 7.46331 3.36167 7.11167C3.71331 6.76004 4.19022 6.5625 4.6875 6.5625H11.7188C12.216 6.5625 12.6929 6.76004 13.0446 7.11167C13.3962 7.46331 13.5938 7.94022 13.5938 8.4375ZM25.3125 6.5625H18.2812C17.784 6.5625 17.3071 6.76004 16.9554 7.11167C16.6038 7.46331 16.4062 7.94022 16.4062 8.4375V15.9375C16.4062 16.4348 16.6038 16.9117 16.9554 17.2633C17.3071 17.615 17.784 17.8125 18.2812 17.8125H25.3125V18.75C25.3094 19.7436 24.9133 20.6956 24.2107 21.3982C23.5081 22.1008 22.5561 22.4969 21.5625 22.5C21.3139 22.5 21.0754 22.5988 20.8996 22.7746C20.7238 22.9504 20.625 23.1889 20.625 23.4375C20.625 23.6861 20.7238 23.9246 20.8996 24.1004C21.0754 24.2762 21.3139 24.375 21.5625 24.375C23.0543 24.375 24.4851 23.7824 25.54 22.7275C26.5949 21.6726 27.1875 20.2418 27.1875 18.75V8.4375C27.1875 7.94022 26.99 7.46331 26.6383 7.11167C26.2867 6.76004 25.8098 6.5625 25.3125 6.5625Z" fill="#416782"/>
</g>
</svg>
