<svg width="25" height="26" viewBox="0 0 25 26" fill="none" xmlns="http://www.w3.org/2000/svg">
<path d="M23.1789 11.3597L3.43278 0.3089C3.10376 0.117036 2.72491 0.0279097 2.34486 0.0529676C1.96482 0.0780255 1.60094 0.216124 1.29997 0.449525C0.99259 0.692042 0.769418 1.02522 0.662135 1.40177C0.554852 1.77831 0.568908 2.17908 0.702309 2.54718L3.99528 11.7464C4.02859 11.8381 4.08904 11.9175 4.16859 11.974C4.24814 12.0306 4.34301 12.0615 4.44059 12.0628H12.9015C13.1448 12.059 13.3805 12.1475 13.561 12.3106C13.7415 12.4738 13.8534 12.6993 13.8742 12.9417C13.8822 13.0697 13.8639 13.1979 13.8204 13.3185C13.7769 13.4391 13.7091 13.5495 13.6212 13.6428C13.5333 13.7362 13.4273 13.8105 13.3095 13.8613C13.1918 13.912 13.0649 13.9381 12.9367 13.9378H4.44059C4.34301 13.9391 4.24814 13.97 4.16859 14.0266C4.08904 14.0831 4.02859 14.1625 3.99528 14.2542L0.702309 23.4534C0.603504 23.7368 0.573732 24.0397 0.615465 24.3369C0.657199 24.6341 0.769234 24.9171 0.942266 25.1623C1.1153 25.4075 1.34434 25.608 1.61036 25.7469C1.87639 25.8859 2.17172 25.9593 2.47184 25.9612C2.79121 25.9598 3.10525 25.8793 3.3859 25.7269L23.1789 14.6409C23.4688 14.4763 23.71 14.2377 23.8778 13.9495C24.0455 13.6613 24.1339 13.3338 24.1339 13.0003C24.1339 12.6668 24.0455 12.3393 23.8778 12.0511C23.71 11.7629 23.4688 11.5244 23.1789 11.3597Z" fill="#339DFF"/>
</svg>
